# xmcd
#
# Track frame offsets:
#	150
#	18276
#	35832
#	64311
#	93458
#	110863
#	130307
#	150099
#
# Disc length: 2432 seconds
#
# Revision: 4
# Processed by: cddbd v1.5.2PL0 Copyright (c) Steve Scherf et al.
# Submitted via: audiograbber 1.83.01
#
DISCID=67097e08
DTITLE=Ray Charles - Ray Charles At Newport
DYEAR=1958
DGENRE=Jazz
TTITLE0=The Right Time (Live 05.07.1958 at The Newport Jazz Festival, Rhode Isl
TTITLE0=and)
TTITLE1=In A Little Spanish Town (Live 05.07.1958 at The Newport Jazz Festival,
TTITLE1=Rhode Island)
TTITLE2=I Got A Woman (Live 05.07.1958 at The Newport Jazz Festival, Rhode Isla
TTITLE2=nd)
TTITLE3=Blues Waltz (Live 05.07.1958 at The Newport Jazz Festival, Rhode Island
TTITLE3=)
TTITLE4=Hot Rod (Live 05.07.1958 at The Newport Jazz Festival, Rhode Island)
TTITLE5=Talkin' 'Bout You (Live 05.07.1958 at The Newport Jazz Festival, Rhode 
TTITLE5=Island)
TTITLE6=Sherry (Live 05.07.1958 at The Newport Jazz Festival, Rhode Island)
TTITLE7=A Fool For You (Live 05.07.1958 at The Newport Jazz Festival, Rhode Isl
TTITLE7=and)
EXTD=
EXTT0=
EXTT1=
EXTT2=
EXTT3=
EXTT4=
EXTT5=
EXTT6=
EXTT7=
PLAYORDER=
